HIERARCHY
ROOT hip
{
  OFFSET 0 0 0
  CHANNELS 6 Xposition Yposition Zposition Zrotation Yrotation Xrotation
  JOINT abdomen
  {
    OFFSET 0 20.6881 -0.73152
    CHANNELS 3 Zrotation Xrotation Yrotation
    JOINT chest
    {
      OFFSET 0 11.7043 -0.48768
      CHANNELS 3 Zrotation Xrotation Yrotation
      JOINT neck
      {
        OFFSET 0 22.1894 -2.19456
        CHANNELS 3 Zrotation Xrotation Yrotation
        JOINT head
        {
          OFFSET -0.24384 7.07133 1.2192
          CHANNELS 3 Zrotation Xrotation Yrotation
          JOINT leftEye
          {
            OFFSET 4.14528 8.04674 8.04672
            CHANNELS 3 Zrotation Xrotation Yrotation
            End Site
            {
              OFFSET 1 0 0
            }
          }
          JOINT rightEye
          {
            OFFSET -3.6576 8.04674 8.04672
            CHANNELS 3 Zrotation Xrotation Yrotation
            End Site
            {
              OFFSET 1 0 0
            }
          }
        }
      }
      JOINT rCollar
      {
        OFFSET -2.68224 19.2634 -4.8768
        CHANNELS 3 Zrotation Xrotation Yrotation
        JOINT rShldr
        {
          OFFSET -8.77824 -1.95073 1.46304
          CHANNELS 3 Zrotation Xrotation Yrotation
          JOINT rForeArm
          {
            OFFSET -28.1742 -1.7115 0.48768
            CHANNELS 3 Zrotation Xrotation Yrotation
            JOINT rHand
            {
              OFFSET -22.5879 0.773209 7.07136
              CHANNELS 3 Zrotation Xrotation Yrotation
              JOINT rThumb1
              {
                OFFSET -1.2192 -0.487915 3.41376
                CHANNELS 3 Zrotation Xrotation Yrotation
                JOINT rThumb2
                {
                  OFFSET -3.37035 -0.52449 3.41376
                  CHANNELS 3 Zrotation Xrotation Yrotation
                  End Site
                  {
                    OFFSET -1.78271 -1.18214 1.43049
                  }
                }
              }
              JOINT rIndex1
              {
                OFFSET -7.75947 0.938293 5.60832
                CHANNELS 3 Zrotation Xrotation Yrotation
                JOINT rIndex2
                {
                  OFFSET -2.54057 -0.884171 1.56538
                  CHANNELS 3 Zrotation Xrotation Yrotation
                  End Site
                  {
                    OFFSET -1.62519 -0.234802 1.16502
                  }
                }
              }
              JOINT rMid1
              {
                OFFSET -8.24714 1.18213 3.41376
                CHANNELS 3 Zrotation Xrotation Yrotation
                JOINT rMid2
                {
                  OFFSET -3.10165 -0.590103 1.0647
                  CHANNELS 3 Zrotation Xrotation Yrotation
                  End Site
                  {
                    OFFSET -2.48547 -0.328903 0.83742
                  }
                }
              }
              JOINT rRing1
              {
                OFFSET -8.82822 0.546677 1.51678
                CHANNELS 3 Zrotation Xrotation Yrotation
                JOINT rRing2
                {
                  OFFSET -2.60934 -0.819778 -0.0198488
                  CHANNELS 3 Zrotation Xrotation Yrotation
                  End Site
                  {
                    OFFSET -2.33842 -0.294052 0.168128
                  }
                }
              }
              JOINT rPinky1
              {
                OFFSET -8.27202 -0.0477905 -0.4584
                CHANNELS 3 Zrotation Xrotation Yrotation
                JOINT rPinky2
                {
                  OFFSET -1.82734 -0.647385 -0.700984
                  CHANNELS 3 Zrotation Xrotation Yrotation
                  End Site
                  {
                    OFFSET -1.69225 -0.51767 -0.607171
                  }
                }
              }
            }
          }
        }
      }
      JOINT lCollar
      {
        OFFSET 2.68224 19.2634 -4.8768
        CHANNELS 3 Zrotation Xrotation Yrotation
        JOINT lShldr
        {
          OFFSET 8.77824 -1.95073 1.46304
          CHANNELS 3 Zrotation Xrotation Yrotation
          JOINT lForeArm
          {
            OFFSET 28.1742 -1.7115 0.48768
            CHANNELS 3 Zrotation Xrotation Yrotation
            JOINT lHand
            {
              OFFSET 22.5879 0.773209 7.07136
              CHANNELS 3 Zrotation Xrotation Yrotation
              JOINT lThumb1
              {
                OFFSET 1.2192 -0.487915 3.41376
                CHANNELS 3 Zrotation Xrotation Yrotation
                JOINT lThumb2
                {
                  OFFSET 3.37035 -0.52449 3.41376
                  CHANNELS 3 Zrotation Xrotation Yrotation
                  End Site
                  {
                    OFFSET 1.78271 -1.18214 1.43049
                  }
                }
              }
              JOINT lIndex1
              {
                OFFSET 7.75947 0.938293 5.60832
                CHANNELS 3 Zrotation Xrotation Yrotation
                JOINT lIndex2
                {
                  OFFSET 2.54057 -0.884171 1.56538
                  CHANNELS 3 Zrotation Xrotation Yrotation
                  End Site
                  {
                    OFFSET 1.62519 -0.234802 1.16502
                  }
                }
              }
              JOINT lMid1
              {
                OFFSET 8.24714 1.18213 3.41376
                CHANNELS 3 Zrotation Xrotation Yrotation
                JOINT lMid2
                {
                  OFFSET 3.10165 -0.590103 1.0647
                  CHANNELS 3 Zrotation Xrotation Yrotation
                  End Site
                  {
                    OFFSET 2.48547 -0.328903 0.83742
                  }
                }
              }
              JOINT lRing1
              {
                OFFSET 8.82822 0.546677 1.51678
                CHANNELS 3 Zrotation Xrotation Yrotation
                JOINT lRing2
                {
                  OFFSET 2.60934 -0.819778 -0.0198488
                  CHANNELS 3 Zrotation Xrotation Yrotation
                  End Site
                  {
                    OFFSET 2.33842 -0.294052 0.168128
                  }
                }
              }
              JOINT lPinky1
              {
                OFFSET 8.27202 -0.0477905 -0.4584
                CHANNELS 3 Zrotation Xrotation Yrotation
                JOINT lPinky2
                {
                  OFFSET 1.82734 -0.647385 -0.700984
                  CHANNELS 3 Zrotation Xrotation Yrotation
                  End Site
                  {
                    OFFSET 1.69225 -0.51767 -0.607171
                  }
                }
              }
            }
          }
        }
      }
    }
  }
  JOINT rButtock
  {
    OFFSET -8.77824 4.35084 1.2192
    CHANNELS 3 Zrotation Xrotation Yrotation
    JOINT rThigh
    {
      OFFSET 0 -1.70687 -2.19456
      CHANNELS 3 Zrotation Xrotation Yrotation
      JOINT rShin
      {
        OFFSET 0 -36.8199 0.73152
        CHANNELS 3 Zrotation Xrotation Yrotation
        JOINT rFoot
        {
          OFFSET 0.73152 -45.1104 -5.12064
          CHANNELS 3 Zrotation Xrotation Yrotation
          End Site
          {
            OFFSET -1.1221 -3.69964 12.103
          }
        }
      }
    }
  }
  JOINT lButtock
  {
    OFFSET 8.77824 4.35084 1.2192
    CHANNELS 3 Zrotation Xrotation Yrotation
    JOINT lThigh
    {
      OFFSET 0 -1.70687 -2.19456
      CHANNELS 3 Zrotation Xrotation Yrotation
      JOINT lShin
      {
        OFFSET 0 -36.8199 0.73152
        CHANNELS 3 Zrotation Xrotation Yrotation
        JOINT lFoot
        {
          OFFSET -0.73152 -45.1104 -5.12064
          CHANNELS 3 Zrotation Xrotation Yrotation
          End Site
          {
            OFFSET 1.1221 -3.69964 12.103
          }
        }
      }
    }
  }
}
MOTION
Frames:	4
Frame Time:	0.03333
0.04879087209701538 -1.3821577653288841 -0.8483884856104851 -154.548095703125 72.31037902832031 -145.45436096191406 -0.5974802374839783 20.128517150878906 19.07663345336914 -5.686882019042969 -14.230164527893066 3.6863045692443848 2.041520595550537 13.345560073852539 13.847463607788086 -2.1957967281341553 -22.124618530273438 27.060354232788086 -0.7046478986740112 1.0703834295272827 -0.8694229125976562 0.27812138199806213 -0.7144785523414612 0.9818615317344666 -0.7515982389450073 -0.06276768445968628 0.0151829207316041 -11.003287315368652 58.617698669433594 72.70323944091797 -26.73899269104004 -44.94489669799805 93.11583709716797 -0.6252657771110535 3.6846067905426025 0.17652057111263275 -0.09975326061248779 0.34056851267814636 -0.3127690553665161 -0.446526437997818 -0.3678942620754242 0.8368018865585327 -0.3233257830142975 -0.158339723944664 0.6230166554450989 7.831783771514893 5.02955436706543 0.13350321352481842 -0.3717895746231079 1.1930373907089233 -0.4344310760498047 3.0421061515808105 0.39318791031837463 0.27767664194107056 -0.6700409650802612 0.1579723060131073 -1.3060145378112793 10.604665756225586 0.7069628834724426 0.5192087292671204 0.29015597701072693 0.7955769300460815 0.6475674510002136 2.407060146331787 -1.4387707710266113 -0.1875772327184677 0.34514084458351135 0.12968532741069794 0.18717624247074127 -59.759315490722656 5.6193437576293945 -19.103294372558594 27.91956329345703 -40.444091796875 -86.21965789794922 1.066604733467102 -32.53029251098633 4.482357501983643 -0.25709131360054016 -0.0166843980550766 -0.4345916211605072 -0.8623808026313782 -0.11147064715623856 -0.199374258518219 0.9644498825073242 0.35646769404411316 -0.8604966998100281 -7.892395973205566 4.863492488861084 -1.2633570432662964 0.3525037169456482 0.021266931667923927 -0.783094584941864 -3.083995819091797 1.6455479860305786 0.036658577620983124 1.0045679807662964 0.29353997111320496 -0.20070110261440277 -10.855658531188965 1.3450053930282593 0.5594053864479065 -0.23477362096309662 -0.4294682741165161 0.5674601793289185 -2.0634288787841797 -1.4741451740264893 0.07832282781600952 0.06938643753528595 -0.8973509669303894 -0.17523859441280365 -71.9411849975586 -43.131202697753906 -53.16873550415039 -174.39340209960938 79.89564514160156 176.2451934814453 -1.3883506059646606 -23.54680061340332 -7.738063335418701 0.9904016256332397 0.15620307624340057 0.1617337018251419 100.71479797363281 -57.31504440307617 80.35050964355469 176.05245971679688 78.97090911865234 -177.30625915527344 -6.092775821685791 -23.102252960205078 -6.551364898681641
0.05161557346582413 -1.4299890957772732 -0.8594445884227753 -151.66671752929688 79.40300750732422 -154.35464477539062 -0.11348909884691238 19.299610137939453 17.610855102539062 -4.610314846038818 -13.635412216186523 3.560018301010132 1.1967358589172363 13.591781616210938 12.285791397094727 -0.7649574875831604 -21.497905731201172 24.33205795288086 -0.800792932510376 1.40108323097229 -0.5139001607894897 0.2899777591228485 -0.5813086628913879 0.9772889018058777 -1.024357795715332 -0.26918938755989075 -0.2708531320095062 -0.23408974707126617 60.38718032836914 61.32593536376953 -26.71067237854004 -43.276920318603516 89.42369079589844 -0.3127012550830841 3.9771206378936768 0.605642557144165 0.016542742028832436 0.4273182153701782 0.0601583756506443 -0.6799483895301819 -0.4563753306865692 0.5061405897140503 -0.5963010787963867 -0.38637229800224304 0.7910139560699463 7.923506736755371 4.549167633056641 0.10345951467752457 -1.0139762163162231 1.0774879455566406 -0.07662845402956009 3.0775704383850098 -0.38331303000450134 -0.11814501881599426 -0.9335736036300659 0.8655493259429932 -1.1252497434616089 10.754252433776855 0.717292845249176 0.4501248598098755 0.24504287540912628 0.8656314015388489 0.4572952389717102 2.567983388900757 -1.0663325786590576 -0.3093034029006958 0.34568434953689575 0.055639609694480896 0.4381863474845886 -59.529296875 7.68516206741333 -18.305049896240234 28.37156105041504 -38.086090087890625 -81.34349060058594 1.2179687023162842 -30.066604614257812 4.3656511306762695 -0.3574776351451874 -0.1485922932624817 -0.494533509016037 -0.5874335169792175 -0.2457643300294876 0.016290904954075813 1.008741021156311 0.44151800870895386 -0.6512928605079651 -7.864987850189209 5.11233377456665 -1.2861562967300415 0.45988455414772034 -0.007246134802699089 -0.48102277517318726 -2.7947885990142822 1.409997582435608 0.22950562834739685 0.7488541007041931 0.4082280695438385 -0.7737943530082703 -10.911800384521484 0.9060312509536743 1.0267620086669922 -0.2518775165081024 -0.17267943918704987 0.44440120458602905 -1.7228519916534424 -0.8667204976081848 0.19812586903572083 0.2719266414642334 -0.5815947651863098 -0.3919663429260254 -67.8180923461914 -44.14838409423828 -48.53371810913086 -176.32196044921875 84.59100341796875 178.28038024902344 -0.6721433401107788 -21.272912979125977 -7.270055294036865 0.8994346857070923 0.01972797140479088 0.19900821149349213 90.02533721923828 -58.98395919799805 70.28333282470703 174.4244842529297 84.41492462158203 -175.4344024658203 -4.874547481536865 -21.480976104736328 -4.449558734893799
0.04564933478832245 -1.3900669291615486 -0.8706022053956985 -160.04129028320312 73.32401275634766 -140.59519958496094 -1.3339320421218872 20.272525787353516 18.30771827697754 -5.550494194030762 -14.016366004943848 3.705157518386841 1.9068267345428467 13.5568265914917 12.93103313446045 -1.8949848413467407 -22.324216842651367 25.332857131958008 -0.5682901740074158 0.9253324270248413 0.17611069977283478 0.31958675384521484 -0.6932835578918457 1.1063543558120728 -0.355910986661911 0.2516600787639618 -0.5534340143203735 -7.8627424240112305 57.115291595458984 70.00401306152344 -26.756973266601562 -44.28553009033203 91.70161437988281 -0.4204496145248413 5.910752773284912 0.8391298055648804 0.14264743030071259 0.2976183295249939 -0.23094280064105988 -0.7935886979103088 -0.298776239156723 0.3845880627632141 -0.3180273175239563 -0.07024475187063217 0.6821368336677551 7.620810508728027 4.848667144775391 0.2049601674079895 -0.6810823082923889 0.9318587779998779 -0.22331677377223969 3.073235511779785 0.25924983620643616 0.15522702038288116 -0.8320214152336121 0.7220821380615234 -0.9872270822525024 10.711034774780273 0.5238224864006042 0.4264100193977356 0.12824241816997528 1.0389354228973389 0.24411433935165405 2.8061017990112305 -0.574527382850647 0.16326239705085754 0.4477633237838745 -0.07603136450052261 0.21714042127132416 -58.34867858886719 7.643136501312256 -18.606210708618164 27.35831069946289 -41.136878967285156 -86.69561004638672 1.4824506044387817 -34.06489181518555 5.0849761962890625 -0.337359219789505 -0.28355705738067627 -0.160129576921463 -0.6327840089797974 -0.09865329414606094 0.04779672250151634 1.013414978981018 0.34294936060905457 -0.803445041179657 -7.354942798614502 5.2120842933654785 -1.3813480138778687 0.22763004899024963 -0.23391017317771912 -0.38322895765304565 -2.834972381591797 1.5249634981155396 -0.33264994621276855 1.2159209251403809 0.11340473592281342 -0.3847523331642151 -10.767720222473145 0.7393191456794739 0.7028647661209106 0.18858380615711212 -0.4513533413410187 0.35730311274528503 -2.1448757648468018 -1.0753668546676636 0.5005297660827637 0.21557123959064484 -0.7154343724250793 -0.44614148139953613 -71.9705581665039 -44.88761520385742 -53.81065368652344 -175.93104553222656 80.36935424804688 178.06561279296875 -1.3369674682617188 -23.078710556030273 -7.535580158233643 0.6781332492828369 -0.11363246291875839 0.44288358092308044 98.02713775634766 -58.22037124633789 78.5994873046875 177.02967834472656 78.78557586669922 -177.5482635498047 -5.435175895690918 -22.894020080566406 -5.868342876434326
0.03906134516000748 -1.3722728937864304 -0.8845450356602669 -160.06195068359375 72.50151062011719 -138.15618896484375 -1.2806181907653809 20.627426147460938 18.76568603515625 -6.395908355712891 -14.691587448120117 3.7589364051818848 1.8917951583862305 13.215981483459473 13.361137390136719 -1.8693208694458008 -23.05473518371582 26.433847427368164 -0.2646868824958801 0.7672693729400635 0.41659650206565857 0.36695802211761475 -0.5459976196289062 0.70819091796875 0.06773234158754349 0.5522910952568054 -0.23269012570381165 -14.455903053283691 53.7094612121582 76.94549560546875 -26.120452880859375 -44.14550018310547 92.22001647949219 -0.5239380598068237 7.489081859588623 0.8235328793525696 0.2457263469696045 0.2531646192073822 -0.3321051001548767 -0.5184258818626404 -0.07849251478910446 0.2647339701652527 0.010829308070242405 0.10709021240472794 0.6868845820426941 7.645314693450928 4.64560604095459 0.3858141303062439 -0.7580196261405945 0.6027023196220398 -0.35667428374290466 2.6510725021362305 0.7164976000785828 0.09085722267627716 -0.6373065114021301 0.9199350476264954 -0.680216908454895 10.500158309936523 0.05246525630354881 0.4206491708755493 0.29762858152389526 0.9563840627670288 0.022949405014514923 2.351670980453491 -0.3169410824775696 -0.056636907160282135 0.3707708716392517 0.010416046716272831 0.047720011323690414 -57.47344970703125 7.710693359375 -18.964988708496094 27.069902420043945 -42.86772537231445 -89.89836120605469 1.5480703115463257 -35.4032096862793 5.229912281036377 -0.21461151540279388 -0.05972690507769585 -0.06147538125514984 -0.7522187829017639 -0.45380154252052307 0.08628539741039276 0.7124142050743103 0.356892853975296 -0.6978291273117065 -7.659303665161133 4.957082748413086 -1.5962824821472168 0.08851878345012665 -0.06810985505580902 -0.21696695685386658 -3.083937883377075 1.0702884197235107 -0.39335358142852783 1.0464468002319336 0.368931382894516 -0.11296962946653366 -10.661393165588379 0.6721116304397583 0.3383060693740845 0.14828988909721375 -0.05446605756878853 0.47208723425865173 -2.309746026992798 -0.9641814827919006 1.0071711540222168 -0.2208605706691742 -0.28817999362945557 -0.3247010111808777 -75.28365325927734 -45.47602462768555 -58.622459411621094 -175.771484375 77.59883880615234 177.69398498535156 -1.6841020584106445 -25.02317237854004 -7.729798793792725 0.26635056734085083 0.29027411341667175 0.5843332409858704 102.93766784667969 -56.85237503051758 84.06652069091797 175.3016815185547 75.38136291503906 -176.17247009277344 -5.7298126220703125 -23.316389083862305 -6.533519268035889
